<?xml version="1.0" encoding="utf-8"?>
<svg xmlns="http://www.w3.org/2000/svg" version="1.1" viewBox="0 0 1400 590">
	<title>The titlepage for the Standard Ebooks edition of Metropolis, by Thea von Harbou. Translated by The Readers Library</title>
	<g aria-label="METROPOLIS">
		<path d="M429.59,130.00l-3.65-45.75l-0.47,0.00l-15.81,45.29l-10.48,0.00l-15.81-45.29l-0.47,0.00l-3.65,45.75l-17.59,0.00l6.92-77.19l18.71,0.00l17.12,44.54l17.12-44.54l18.71,0.00l6.92,77.19l-17.59,0.00z"/>
		<path d="M503.46,52.81l0.00,15.44l-26.57,0.00l0.00,15.35l25.45,0.00l0.00,15.44l-25.45,0.00l0.00,15.53l26.57,0.00l0.00,15.44l-44.16,0.00l0.00-77.19l44.16,0.00z"/>
		<path d="M513.70,68.25l0.00-15.44l54.27,0.00l0.00,15.44l-18.34,0.00l0.00,61.75l-17.59,0.00l0.00-61.75l-18.34,0.00z"/>
		<path d="M579.33,52.81l27.60,0.00c14.32,0.00,25.17,7.77,25.17,22.92c0.00,11.60-6.36,19.37-15.81,22.36l26.57,31.91l-22.36,0.00l-23.58-30.50l0.00,30.50l-17.59,0.00l0.00-77.19z  M596.92,87.05l2.06,0.00c6.64,0.00,14.60-0.47,14.60-10.11s-7.95-10.11-14.60-10.11l-2.06,0.00l0.00,20.21z"/>
		<path d="M647.86,91.36c0.00-22.55,17.68-39.95,38.92-39.95c21.43,0.00,38.83,17.40,38.83,39.95s-16.65,40.05-38.83,40.05c-22.83,0.00-38.92-17.50-38.92-40.05z  M666.86,91.36c0.00,11.51,5.52,23.02,19.93,23.02c14.04,0.00,19.84-11.51,19.84-23.02s-6.18-23.02-19.84-23.02c-13.57,0.00-19.93,11.51-19.93,23.02z"/>
		<path d="M738.38,52.81l28.16,0.00c15.06,0.00,26.39,7.77,26.39,23.77c0.00,15.91-11.32,24.80-26.39,24.80l-10.57,0.00l0.00,28.63l-17.59,0.00l0.00-77.19z  M755.97,87.33l4.96,0.00c6.92,0.00,13.47-2.34,13.47-10.20c0.00-7.95-6.55-10.29-13.47-10.29l-4.96,0.00l0.00,20.49z"/>
		<path d="M802.24,91.36c0.00-22.55,17.68-39.95,38.92-39.95c21.43,0.00,38.83,17.40,38.83,39.95s-16.65,40.05-38.83,40.05c-22.83,0.00-38.92-17.50-38.92-40.05z  M821.23,91.36c0.00,11.51,5.52,23.02,19.93,23.02c14.04,0.00,19.84-11.51,19.84-23.02s-6.18-23.02-19.84-23.02c-13.57,0.00-19.93,11.51-19.93,23.02z"/>
		<path d="M910.35,52.81l0.00,61.75l26.57,0.00l0.00,15.44l-44.16,0.00l0.00-77.19l17.59,0.00z"/>
		<path d="M968.21,52.81l0.00,77.19l-17.59,0.00l0.00-77.19l17.59,0.00z"/>
		<path d="M1011.01,51.40c14.04,0.00,23.95,7.30,23.95,7.30l-7.11,14.04s-7.67-5.33-15.63-5.33c-5.99,0.00-9.17,2.71-9.17,6.92c0.00,4.30,7.30,7.39,16.09,11.13c8.61,3.65,18.06,10.95,18.06,21.05c0.00,18.43-14.04,24.89-29.10,24.89c-18.06,0.00-29.01-10.20-29.01-10.20l8.80-14.78s10.29,8.70,18.90,8.70c3.84,0.00,11.13-0.37,11.13-7.58c0.00-5.61-8.23-8.14-17.40-12.73c-9.26-4.58-14.69-11.79-14.69-19.84c0.00-14.41,12.73-23.58,25.17-23.58z"/>
	</g>
	<g aria-label="THEA VON HARBOU">
		<path d="M307.91,243.68l0.00-11.58l40.70,0.00l0.00,11.58l-13.75,0.00l0.00,46.32l-13.19,0.00l0.00-46.32l-13.75,0.00z"/>
		<path d="M371.58,266.77l0.00,23.23l-13.19,0.00l0.00-57.89l13.19,0.00l0.00,23.09l18.67,0.00l0.00-23.09l13.19,0.00l0.00,57.89l-13.19,0.00l0.00-23.23l-18.67,0.00z"/>
		<path d="M449.98,232.11l0.00,11.58l-19.93,0.00l0.00,11.51l19.09,0.00l0.00,11.58l-19.09,0.00l0.00,11.65l19.93,0.00l0.00,11.58l-33.12,0.00l0.00-57.89l33.12,0.00z"/>
		<path d="M492.39,232.11l23.37,57.89l-14.18,0.00l-4.28-11.58l-22.04,0.00l-4.28,11.58l-14.18,0.00l23.37-57.89l12.21,0.00z  M492.81,266.84l-6.46-16.84l-0.14,0.00l-6.46,16.84l13.05,0.00z"/>
		<path d="M559.30,290.00l-24.28-57.89l14.88,0.00l14.60,38.04l14.60-38.04l14.88,0.00l-24.28,57.89l-10.39,0.00z"/>
		<path d="M596.37,261.02c0.00-16.91,13.26-29.96,29.19-29.96c16.07,0.00,29.12,13.05,29.12,29.96s-12.49,30.04-29.12,30.04c-17.12,0.00-29.19-13.12-29.19-30.04z  M610.61,261.02c0.00,8.63,4.14,17.26,14.95,17.26c10.53,0.00,14.88-8.63,14.88-17.26s-4.63-17.26-14.88-17.26c-10.18,0.00-14.95,8.63-14.95,17.26z"/>
		<path d="M678.70,254.07l0.00,35.93l-13.19,0.00l0.00-57.89l13.19,0.00l23.02,35.93l0.14,0.00l0.00-35.93l13.19,0.00l0.00,57.89l-13.19,0.00l-23.02-35.93l-0.14,0.00z"/>
		<path d="M765.82,266.77l0.00,23.23l-13.19,0.00l0.00-57.89l13.19,0.00l0.00,23.09l18.67,0.00l0.00-23.09l13.19,0.00l0.00,57.89l-13.19,0.00l0.00-23.23l-18.67,0.00z"/>
		<path d="M840.51,232.11l23.37,57.89l-14.18,0.00l-4.28-11.58l-22.04,0.00l-4.28,11.58l-14.18,0.00l23.37-57.89l12.21,0.00z  M840.93,266.84l-6.46-16.84l-0.14,0.00l-6.46,16.84l13.05,0.00z"/>
		<path d="M871.12,232.11l20.70,0.00c10.74,0.00,18.88,5.82,18.88,17.19c0.00,8.70-4.77,14.53-11.86,16.77l19.93,23.93l-16.77,0.00l-17.68-22.88l0.00,22.88l-13.19,0.00l0.00-57.89z  M884.32,257.79l1.54,0.00c4.98,0.00,10.95-0.35,10.95-7.58s-5.96-7.58-10.95-7.58l-1.54,0.00l0.00,15.16z"/>
		<path d="M926.37,232.11l17.96,0.00c9.96,0.00,17.82,3.72,17.82,14.74c0.00,5.33-2.32,9.89-7.23,12.42c7.23,1.26,12.35,5.26,12.35,14.60c0.00,9.54-6.95,16.14-18.95,16.14l-21.96,0.00l0.00-57.89z  M939.56,254.77l1.05,0.00c5.68,0.00,8.77-1.75,8.77-6.60c0.00-4.14-3.02-5.89-8.77-5.89l-1.05,0.00l0.00,12.49z  M939.56,279.82l4.14,0.00c6.25,0.00,9.68-1.89,9.68-6.46c0.00-5.33-3.44-7.23-9.68-7.23l-4.14,0.00l0.00,13.68z"/>
		<path d="M975.51,261.02c0.00-16.91,13.26-29.96,29.19-29.96c16.07,0.00,29.12,13.05,29.12,29.96s-12.49,30.04-29.12,30.04c-17.12,0.00-29.19-13.12-29.19-30.04z  M989.75,261.02c0.00,8.63,4.14,17.26,14.95,17.26c10.53,0.00,14.88-8.63,14.88-17.26s-4.63-17.26-14.88-17.26c-10.18,0.00-14.95,8.63-14.95,17.26z"/>
		<path d="M1089.14,232.11l0.00,37.33c0.00,14.32-7.86,21.61-22.60,21.61s-22.60-7.30-22.60-21.61l0.00-37.33l13.19,0.00l0.00,33.47c0.00,9.68,2.95,12.49,9.40,12.49s9.40-2.81,9.40-12.49l0.00-33.47l13.19,0.00z"/>
	</g>
	<g aria-label="translated by">
		<path d="M594.73,463.42c0.00-0.85,1.62-0.81,3.49-2.76c1.70-1.79,1.79-2.34,2.47-2.34c0.21,0.00,0.43,0.13,0.43,0.51c0.00,0.55-0.77,2.55-0.77,3.19c0.00,0.26,0.09,0.30,1.49,0.30c1.66,0.00,2.00-0.04,2.47-0.04c0.89,0.00,1.11,0.30,1.11,0.81c0.00,0.98-0.26,1.23-1.02,1.23c-0.68,0.00-2.51-0.21-3.44-0.21c-1.23,0.00-1.11,0.77-1.36,2.51c-0.38,2.64-1.36,8.16-1.36,8.84c0.00,2.25,1.57,2.34,1.74,2.34c2.34,0.00,3.32-1.87,4.00-1.87c0.13,0.00,0.47,0.00,0.47,0.60c0.00,1.11-3.61,4.00-6.25,4.00c-1.15,0.00-2.72-0.68-2.72-4.00c0.00-3.91,1.79-10.80,1.79-11.94c0.00-0.89-2.51,0.04-2.51-1.15z"/>
		<path d="M606.84,467.42c0.00-4.85,3.61-5.87,4.00-5.87c0.89,0.00,1.32,0.81,1.57,1.49c1.06,2.76,1.11,2.81,1.19,2.81c0.30,0.00,2.42-4.38,5.57-4.38c1.11,0.00,1.57,0.72,1.57,1.32c0.00,0.55-0.34,1.11-0.47,1.57c-0.09,0.30-0.17,1.62-0.94,1.62c-0.94,0.00-0.77-1.79-2.30-1.79c-1.91,0.00-2.98,5.57-3.19,7.35l-0.21,1.40c-0.94,7.23-0.85,7.23-2.38,7.23l-0.21,0.00c-0.43,0.00-1.28-0.09-1.28-1.11c0.00-1.70,1.83-7.95,1.83-11.14c0.00-2.13-0.68-2.89-1.45-2.89c-1.74,0.00-2.08,2.55-2.34,2.85c-0.13,0.13-0.26,0.26-0.47,0.26c-0.17,0.00-0.51-0.13-0.51-0.72z"/>
		<path d="M620.45,475.15c0.00-2.38,1.06-4.80,2.38-6.93c1.53-2.42,3.49-4.46,5.74-5.53c1.15-0.55,2.00-0.77,3.10-0.77c1.32,0.00,2.21,0.47,3.61,0.47c0.85,0.00,1.36-2.08,2.21-2.08c0.26,0.00,0.47,0.17,0.47,0.64c0.00,0.68-0.55,1.70-0.85,2.93c-0.38,1.57-0.64,3.53-0.98,5.44c-0.34,1.87-0.77,3.83-0.77,5.44c0.00,1.11,0.64,2.51,1.45,2.51c1.40,0.00,2.30-2.76,3.10-2.76c0.34,0.00,0.38,0.30,0.38,0.47c0.00,0.43-0.21,1.06-0.77,1.83c-1.06,1.53-2.98,3.49-4.12,3.49c-2.72,0.00-2.34-4.76-2.64-4.76c-0.21,0.00-3.74,5.10-7.78,5.10s-4.55-2.72-4.55-5.48z  M623.42,474.90c0.00,2.13,1.53,3.40,3.32,3.40c3.06,0.00,5.06-3.06,5.44-3.83c1.02-2.04,2.17-9.86,2.17-9.99c0.00-1.19-1.91-1.49-2.81-1.49c-1.74,0.00-4.00,1.28-5.27,3.44c-1.23,2.04-2.25,3.95-2.64,6.16c-0.13,0.77-0.21,1.53-0.21,2.30z"/>
		<path d="M641.70,466.35c0.00-1.66,2.55-4.85,4.17-4.85c2.47,0.00,1.57,4.46,1.96,4.46c0.26,0.00,0.55-0.94,2.13-2.13c1.15-0.89,3.40-2.42,5.19-2.42c2.98,0.00,3.57,2.64,3.57,5.31c0.00,2.98-0.72,7.48-0.72,8.93c0.00,1.19,0.34,1.53,0.81,1.53c0.72,0.00,1.70-0.94,1.70-0.94c0.51-0.64,0.68-1.15,1.32-1.15c0.30,0.00,0.38,0.26,0.38,0.51c0.00,1.66-3.74,4.63-5.61,4.63c-0.85,0.00-1.57-1.19-1.57-2.68c0.00-3.23,0.89-8.93,0.89-10.50c0.00-0.68-0.21-3.49-2.98-3.49c-0.98,0.00-1.79,0.47-2.76,1.87c-1.83,2.59-1.32,2.21-2.34,7.69c-1.06,5.74-0.77,5.23-0.85,5.82c-0.13,0.94-0.47,1.11-1.57,1.11c-1.15,0.00-1.49-0.09-1.49-1.32c0.00-1.79,1.87-8.37,1.87-11.65c0.00-1.49-0.55-2.34-0.98-2.34c-1.32,0.00-1.79,2.38-2.72,2.38c-0.30,0.00-0.38-0.34-0.38-0.81z"/>
		<path d="M663.68,477.70c0.00-1.32,0.85-1.53,1.36-1.53c2.17,0.00,1.45,2.93,4.04,2.93c3.10,0.00,3.40-2.21,3.40-2.72c0.00-2.00-1.40-3.23-2.93-4.76c-1.70-1.74-3.32-2.85-3.32-5.40c0.00-2.85,2.47-4.80,5.78-4.80c2.30,0.00,3.95,0.55,3.95,2.21c0.00,1.32-1.40,1.45-1.62,1.45c-1.53,0.00-1.70-2.38-3.36-2.38c-1.62,0.00-2.25,0.98-2.25,2.25c0.00,1.62,2.34,3.36,3.36,4.46c1.32,1.49,2.93,2.68,2.93,5.53c0.00,1.53-1.19,5.57-6.63,5.57c-1.66,0.00-4.72-0.55-4.72-2.81z"/>
		<path d="M678.72,476.34c0.00-2.42,1.11-7.44,1.19-8.12c0.38-2.68,0.60-5.70,1.02-8.42c0.72-4.59,1.36-8.42,1.36-8.93s-0.43-0.85-1.06-0.85s-0.72,0.04-1.23,0.04c-0.85,0.00-1.23-0.13-1.23-0.60c0.00-0.21,0.09-0.55,0.64-0.60c3.10-0.21,4.04-0.64,5.14-0.64c0.68,0.00,0.89,0.26,0.89,0.68c0.00,0.60-0.30,1.15-0.43,1.96c-1.57,8.25-0.85,6.67-2.21,15.81c-0.72,5.02-1.23,7.69-1.23,9.14s0.13,1.66,0.68,1.66c2.34,0.00,2.76-3.02,3.87-3.02c0.30,0.00,0.51,0.26,0.51,0.68s-1.11,1.87-2.13,3.06c-1.11,1.28-2.89,2.13-3.70,2.13c-0.85,0.00-2.08,0.00-2.08-4.00z"/>
		<path d="M689.22,475.15c0.00-2.38,1.06-4.80,2.38-6.93c1.53-2.42,3.49-4.46,5.74-5.53c1.15-0.55,2.00-0.77,3.10-0.77c1.32,0.00,2.21,0.47,3.61,0.47c0.85,0.00,1.36-2.08,2.21-2.08c0.26,0.00,0.47,0.17,0.47,0.64c0.00,0.68-0.55,1.70-0.85,2.93c-0.38,1.57-0.64,3.53-0.98,5.44c-0.34,1.87-0.77,3.83-0.77,5.44c0.00,1.11,0.64,2.51,1.45,2.51c1.40,0.00,2.30-2.76,3.10-2.76c0.34,0.00,0.38,0.30,0.38,0.47c0.00,0.43-0.21,1.06-0.77,1.83c-1.06,1.53-2.98,3.49-4.12,3.49c-2.72,0.00-2.34-4.76-2.64-4.76c-0.21,0.00-3.74,5.10-7.78,5.10s-4.55-2.72-4.55-5.48z  M692.20,474.90c0.00,2.13,1.53,3.40,3.32,3.40c3.06,0.00,5.06-3.06,5.44-3.83c1.02-2.04,2.17-9.86,2.17-9.99c0.00-1.19-1.91-1.49-2.81-1.49c-1.74,0.00-4.00,1.28-5.27,3.44c-1.23,2.04-2.25,3.95-2.64,6.16c-0.13,0.77-0.21,1.53-0.21,2.30z"/>
		<path d="M711.12,463.42c0.00-0.85,1.62-0.81,3.49-2.76c1.70-1.79,1.79-2.34,2.47-2.34c0.21,0.00,0.43,0.13,0.43,0.51c0.00,0.55-0.77,2.55-0.77,3.19c0.00,0.26,0.09,0.30,1.49,0.30c1.66,0.00,2.00-0.04,2.47-0.04c0.89,0.00,1.11,0.30,1.11,0.81c0.00,0.98-0.26,1.23-1.02,1.23c-0.68,0.00-2.51-0.21-3.44-0.21c-1.23,0.00-1.11,0.77-1.36,2.51c-0.38,2.64-1.36,8.16-1.36,8.84c0.00,2.25,1.57,2.34,1.74,2.34c2.34,0.00,3.32-1.87,4.00-1.87c0.13,0.00,0.47,0.00,0.47,0.60c0.00,1.11-3.61,4.00-6.25,4.00c-1.15,0.00-2.72-0.68-2.72-4.00c0.00-3.91,1.79-10.80,1.79-11.94c0.00-0.89-2.51,0.04-2.51-1.15z"/>
		<path d="M723.36,473.75c0.00-3.66,1.87-7.31,4.80-10.03c1.57-1.49,3.53-2.25,5.91-2.25c2.00,0.00,3.70,1.28,3.70,3.15c0.00,3.06-3.32,4.80-4.12,5.14c-0.38,0.17-2.68,1.11-6.67,1.15c-0.60,0.00-0.72,0.64-0.72,1.74c0.00,3.19,1.91,5.31,6.12,5.31c2.42,0.00,4.12-1.83,4.59-1.83c0.34,0.00,0.51,0.17,0.51,0.43c0.00,0.98-3.70,3.95-7.40,3.95c-5.40,0.00-6.72-2.98-6.72-6.76z  M726.84,469.33c0.00,0.30,0.09,0.85,0.38,0.85c4.12,0.00,7.61-2.76,7.61-5.44c0.00-1.62-1.53-2.00-2.25-2.00c-1.06,0.00-2.38,0.85-3.49,2.00c-1.28,1.32-2.25,4.04-2.25,4.59z"/>
		<path d="M739.81,474.69c0.00-6.59,5.53-12.92,10.58-12.92c1.11,0.00,1.96,0.55,3.15,0.55c0.13,0.00,1.53-11.18,1.53-11.48c0.00-0.64-0.60-1.06-1.23-1.06c-0.47,0.00-1.45,0.04-1.49,0.04c-0.43,0.00-0.68-0.17-0.68-0.47c0.00-0.72,1.49-0.55,2.68-0.85c2.38-0.60,2.13-0.68,3.27-0.68c0.38,0.00,0.68,0.34,0.68,0.72c0.00,1.11-0.43,2.47-2.81,19.85c-0.47,3.23-0.89,5.91-0.89,7.18c0.00,0.94,0.13,1.83,1.11,1.83c1.87,0.00,2.85-2.64,3.53-2.64c0.34,0.00,0.47,0.21,0.47,0.38c0.00,0.89-2.68,5.19-5.44,5.19c-2.98,0.00-2.00-4.76-2.59-4.76c-0.38,0.00-2.55,4.76-6.76,4.76c-3.61,0.00-5.10-2.47-5.10-5.65z  M742.78,473.50c0.00,2.47,1.02,4.38,3.61,4.38c1.53,0.00,3.19-0.81,4.29-2.21c1.70-2.13,2.34-9.61,2.34-11.31c0.00-1.15-1.70-1.70-2.85-1.70c-3.91,0.00-7.40,6.38-7.40,10.84z"/>
		<path d="M771.05,476.98c0.00-2.72,0.98-7.14,1.57-10.58c0.77-4.42,1.28-8.54,1.91-11.69c0.38-1.83,0.64-3.32,0.64-4.34c0.00-0.21-0.21-0.51-1.06-0.51c-0.64,0.00-1.11,0.09-1.74,0.09c-0.47,0.00-0.81,0.00-0.81-0.60c0.00-0.85,1.19-0.81,3.15-1.06c1.66-0.21,2.42-0.47,2.68-0.47c0.47,0.00,0.81,0.30,0.81,0.77c0.00,0.77-2.72,13.43-2.72,16.49c0.00,0.30,0.13,0.64,0.21,0.64c0.60,0.00,2.59-3.95,7.48-3.95c3.19,0.00,4.68,2.64,4.68,5.40c0.00,5.78-5.02,13.39-11.60,13.39c-2.51,0.00-5.19-1.11-5.19-3.57z  M773.86,476.47c0.00,1.45,0.64,2.89,3.27,2.89c3.83,0.00,7.74-6.12,7.74-11.01c0.00-2.38-1.83-4.34-4.17-4.34c-1.02,0.00-3.78,0.43-5.14,4.12c-1.23,3.36-1.70,7.91-1.70,8.33z"/>
		<path d="M789.50,485.31c0.00-0.72,0.64-1.40,1.36-1.40c1.70,0.00,1.74,1.40,3.70,1.40c2.47,0.00,5.27-5.44,5.27-7.06c0.00-2.38-4.68-13.35-6.93-13.35c-2.47,0.00-1.57,3.19-2.85,3.19c-0.26,0.00-0.43-0.21-0.43-0.94c0.00-1.79,0.85-5.48,3.44-5.48c4.12,0.00,8.16,12.07,8.63,12.07c0.60,0.00,1.53-4.55,1.53-7.40c0.00-1.23-1.06-2.08-1.06-3.23c0.00-0.77,0.43-1.57,1.45-1.57c0.94,0.00,1.66,0.94,1.66,2.25c0.00,1.91-1.02,7.78-3.53,14.11c-2.00,5.06-4.72,9.90-8.71,9.90c-1.83,0.00-3.53-0.55-3.53-2.51z"/>
	</g>
	<g aria-label="THE READERS LIBRARY">
		<path d="M382.23,509.12l0.00-7.72l27.13,0.00l0.00,7.72l-9.17,0.00l0.00,30.88l-8.80,0.00l0.00-30.88l-9.17,0.00z"/>
		<path d="M426.34,524.51l0.00,15.49l-8.80,0.00l0.00-38.60l8.80,0.00l0.00,15.39l12.44,0.00l0.00-15.39l8.80,0.00l0.00,38.60l-8.80,0.00l0.00-15.49l-12.44,0.00z"/>
		<path d="M480.27,501.40l0.00,7.72l-13.29,0.00l0.00,7.67l12.73,0.00l0.00,7.72l-12.73,0.00l0.00,7.77l13.29,0.00l0.00,7.72l-22.08,0.00l0.00-38.60l22.08,0.00z"/>
		<path d="M508.10,501.40l13.80,0.00c7.16,0.00,12.58,3.88,12.58,11.46c0.00,5.80-3.18,9.68-7.91,11.18l13.29,15.95l-11.18,0.00l-11.79-15.25l0.00,15.25l-8.80,0.00l0.00-38.60z  M516.89,518.53l1.03,0.00c3.32,0.00,7.30-0.23,7.30-5.05s-3.98-5.05-7.30-5.05l-1.03,0.00l0.00,10.11z"/>
		<path d="M568.68,501.40l0.00,7.72l-13.29,0.00l0.00,7.67l12.73,0.00l0.00,7.72l-12.73,0.00l0.00,7.77l13.29,0.00l0.00,7.72l-22.08,0.00l0.00-38.60l22.08,0.00z"/>
		<path d="M598.61,501.40l15.58,38.60l-9.45,0.00l-2.85-7.72l-14.69,0.00l-2.85,7.72l-9.45,0.00l15.58-38.60l8.14,0.00z  M598.89,524.56l-4.30-11.23l-0.09,0.00l-4.30,11.23l8.70,0.00z"/>
		<path d="M620.69,501.40l11.18,0.00c10.57,0.00,19.46,8.05,19.46,19.27c0.00,11.27-8.84,19.32-19.46,19.32l-11.18,0.00l0.00-38.60z  M629.49,532.14l1.36,0.00c6.50,0.00,10.95-4.96,10.99-11.42c0.00-6.46-4.44-11.46-10.99-11.46l-1.36,0.00l0.00,22.88z"/>
		<path d="M682.30,501.40l0.00,7.72l-13.29,0.00l0.00,7.67l12.73,0.00l0.00,7.72l-12.73,0.00l0.00,7.77l13.29,0.00l0.00,7.72l-22.08,0.00l0.00-38.60l22.08,0.00z"/>
		<path d="M692.35,501.40l13.80,0.00c7.16,0.00,12.58,3.88,12.58,11.46c0.00,5.80-3.18,9.68-7.91,11.18l13.29,15.95l-11.18,0.00l-11.79-15.25l0.00,15.25l-8.80,0.00l0.00-38.60z  M701.15,518.53l1.03,0.00c3.32,0.00,7.30-0.23,7.30-5.05s-3.98-5.05-7.30-5.05l-1.03,0.00l0.00,10.11z"/>
		<path d="M745.07,500.70c7.02,0.00,11.98,3.65,11.98,3.65l-3.56,7.02s-3.84-2.67-7.81-2.67c-2.99,0.00-4.58,1.36-4.58,3.46c0.00,2.15,3.65,3.70,8.05,5.57c4.30,1.82,9.03,5.47,9.03,10.53c0.00,9.22-7.02,12.44-14.55,12.44c-9.03,0.00-14.50-5.10-14.50-5.10l4.40-7.39s5.15,4.35,9.45,4.35c1.92,0.00,5.57-0.19,5.57-3.79c0.00-2.81-4.12-4.07-8.70-6.36c-4.63-2.29-7.35-5.89-7.35-9.92c0.00-7.20,6.36-11.79,12.58-11.79z"/>
		<path d="M793.85,501.40l0.00,30.88l13.29,0.00l0.00,7.72l-22.08,0.00l0.00-38.60l8.80,0.00z"/>
		<path d="M825.29,501.40l0.00,38.60l-8.80,0.00l0.00-38.60l8.80,0.00z"/>
		<path d="M835.90,501.40l11.98,0.00c6.64,0.00,11.88,2.48,11.88,9.82c0.00,3.56-1.54,6.60-4.82,8.28c4.82,0.84,8.23,3.51,8.23,9.73c0.00,6.36-4.63,10.76-12.63,10.76l-14.64,0.00l0.00-38.60z  M844.70,516.51l0.70,0.00c3.79,0.00,5.85-1.17,5.85-4.40c0.00-2.76-2.01-3.93-5.85-3.93l-0.70,0.00l0.00,8.33z  M844.70,533.22l2.76,0.00c4.16,0.00,6.46-1.26,6.46-4.30c0.00-3.56-2.29-4.82-6.46-4.82l-2.76,0.00l0.00,9.12z"/>
		<path d="M872.06,501.40l13.80,0.00c7.16,0.00,12.58,3.88,12.58,11.46c0.00,5.80-3.18,9.68-7.91,11.18l13.29,15.95l-11.18,0.00l-11.79-15.25l0.00,15.25l-8.80,0.00l0.00-38.60z  M880.85,518.53l1.03,0.00c3.32,0.00,7.30-0.23,7.30-5.05s-3.98-5.05-7.30-5.05l-1.03,0.00l0.00,10.11z"/>
		<path d="M930.16,501.40l15.58,38.60l-9.45,0.00l-2.85-7.72l-14.69,0.00l-2.85,7.72l-9.45,0.00l15.58-38.60l8.14,0.00z  M930.44,524.56l-4.30-11.23l-0.09,0.00l-4.30,11.23l8.70,0.00z"/>
		<path d="M952.23,501.40l13.80,0.00c7.16,0.00,12.58,3.88,12.58,11.46c0.00,5.80-3.18,9.68-7.91,11.18l13.29,15.95l-11.18,0.00l-11.79-15.25l0.00,15.25l-8.80,0.00l0.00-38.60z  M961.03,518.53l1.03,0.00c3.32,0.00,7.30-0.23,7.30-5.05s-3.98-5.05-7.30-5.05l-1.03,0.00l0.00,10.11z"/>
		<path d="M982.31,501.40l10.57,0.00l8.05,12.35l8.05-12.35l10.57,0.00l-14.22,21.29l0.00,17.31l-8.80,0.00l0.00-17.31z"/>
	</g>
</svg>
